<svg id="Layer_1" data-name="Layer 1" xmlns="http://www.w3.org/2000/svg" width="173.22" height="384.56" viewBox="0 0 173.22 384.56"><defs><style>.cls-1{fill:#f4d163;}.cls-2{fill:#f79461;}.cls-3{fill:#fdcc9a;}.cls-4{fill:#231f20;}.cls-5{fill:#0e0e1e;}.cls-6{fill:#f9ac87;}.cls-7{fill:#34af4a;}.cls-8{fill:#c6842b;}</style></defs><title>character_4_game</title><circle class="cls-1" cx="88.09" cy="58.82" r="49.56"/><rect class="cls-2" x="78.36" y="149.97" width="17.98" height="37.38" rx="8.99"/><rect class="cls-3" x="56.17" y="33.54" width="63.84" height="132.14" rx="30.62"/><path class="cls-4" d="M262.38,158.75c0,7.4-6.77,13.4-15.12,13.4s-15.12-6-15.12-13.4,10-8.55,15.12-13.4C256.13,136.93,262.38,151.35,262.38,158.75Z" transform="translate(-159.26 -18.94)"/><ellipse class="cls-3" cx="120.01" cy="105.67" rx="8.58" ry="11.29"/><ellipse class="cls-2" cx="120.01" cy="106.21" rx="5.12" ry="6.11"/><ellipse class="cls-3" cx="54.24" cy="105.67" rx="8.58" ry="11.29"/><ellipse class="cls-2" cx="54.24" cy="106.21" rx="5.12" ry="6.11"/><ellipse class="cls-1" cx="112.87" cy="34.25" rx="24.78" ry="24.57"/><ellipse class="cls-1" cx="80.96" cy="25.24" rx="23.1" ry="25.24"/><circle class="cls-1" cx="51.35" cy="34.25" r="12.82"/><circle class="cls-1" cx="125.69" cy="55.9" r="12.82"/><circle class="cls-5" cx="71.26" cy="81.04" r="7.1"/><circle class="cls-5" cx="104.05" cy="81.04" r="7.1"/><rect class="cls-6" x="82.99" y="73.94" width="10.21" height="38.08" rx="5.1"/><rect class="cls-7" x="46.08" y="362.51" width="31.67" height="22.06" rx="10.11"/><rect class="cls-7" x="69.38" y="265.02" width="16.73" height="119.54"/><rect class="cls-7" x="258.76" y="381.45" width="31.67" height="22.06" rx="10.11" transform="translate(389.93 766.01) rotate(-180)"/><rect class="cls-7" x="250.39" y="283.96" width="16.73" height="119.54" transform="translate(358.26 668.52) rotate(-180)"/><rect class="cls-8" x="191.9" y="198.13" width="16.64" height="115.11" rx="8.32" transform="translate(-37.04 -78.49) rotate(24.17)"/><rect class="cls-3" x="173.52" y="297.82" width="7.49" height="18.05" rx="3.74" transform="translate(-18.11 -64.61) rotate(24.17)"/><rect class="cls-3" x="161.71" y="305.5" width="18.58" height="30.56" rx="9.29" transform="translate(-12.95 -60.83) rotate(24.17)"/><rect class="cls-2" x="175.68" y="313.32" width="7.49" height="18.05" rx="3.74" transform="translate(-11.58 -64.14) rotate(24.17)"/><rect class="cls-8" x="277.22" y="193.27" width="16.64" height="115.11" rx="8.32" transform="translate(489.49 343.85) rotate(155.83)"/><rect class="cls-3" x="310.73" y="292.96" width="7.49" height="18.05" rx="3.74" transform="translate(565.77 429.84) rotate(155.83)"/><rect class="cls-3" x="311.44" y="300.65" width="18.58" height="30.56" rx="9.29" transform="translate(583.44 453.94) rotate(155.83)"/><rect class="cls-2" x="308.57" y="308.47" width="7.49" height="18.05" rx="3.74" transform="translate(567.98 460.37) rotate(155.83)"/><rect class="cls-8" x="55.43" y="179.13" width="63.84" height="132.14" rx="30.62"/><rect class="cls-7" x="55.5" y="257.83" width="63.69" height="53.44" rx="26.72"/></svg>