<svg id="Layer_1" data-name="Layer 1" xmlns="http://www.w3.org/2000/svg" width="600" height="452" viewBox="0 0 600 452"><defs><style>.cls-1{fill:#f4d163;}.cls-2{fill:#f79461;}.cls-3{fill:#fdcc9a;}.cls-4{fill:#231f20;}.cls-5{fill:#0e0e1e;}.cls-6{fill:#f9ac87;}.cls-7{fill:#34af4a;}.cls-8{fill:#c6842b;}</style></defs><title>character_3_game</title><circle class="cls-1" cx="247.35" cy="77.75" r="49.56"/><rect class="cls-2" x="237.62" y="168.9" width="17.98" height="37.38" rx="8.99"/><rect class="cls-3" x="215.43" y="52.48" width="63.84" height="132.14" rx="30.62"/><path class="cls-4" d="M262.38,158.75c0,7.4-6.77,13.4-15.12,13.4s-15.12-6-15.12-13.4,10-8.55,15.12-13.4C256.13,136.93,262.38,151.35,262.38,158.75Z"/><ellipse class="cls-3" cx="279.27" cy="124.6" rx="8.58" ry="11.29"/><ellipse class="cls-2" cx="279.27" cy="125.15" rx="5.12" ry="6.11"/><ellipse class="cls-3" cx="213.49" cy="124.6" rx="8.58" ry="11.29"/><ellipse class="cls-2" cx="213.49" cy="125.15" rx="5.12" ry="6.11"/><ellipse class="cls-1" cx="272.13" cy="53.19" rx="24.78" ry="24.57"/><ellipse class="cls-1" cx="240.21" cy="44.18" rx="23.1" ry="25.24"/><circle class="cls-1" cx="210.61" cy="53.19" r="12.82"/><circle class="cls-1" cx="284.95" cy="74.83" r="12.82"/><circle class="cls-5" cx="230.52" cy="99.98" r="7.1"/><circle class="cls-5" cx="263.31" cy="99.98" r="7.1"/><rect class="cls-6" x="242.25" y="92.88" width="10.21" height="38.08" rx="5.1"/><rect class="cls-7" x="205.34" y="381.45" width="31.67" height="22.06" rx="10.11"/><rect class="cls-7" x="228.64" y="283.96" width="16.73" height="119.54"/><rect class="cls-7" x="258.76" y="381.45" width="31.67" height="22.06" rx="10.11" transform="translate(549.19 784.95) rotate(-180)"/><rect class="cls-7" x="250.39" y="283.96" width="16.73" height="119.54" transform="translate(517.51 687.46) rotate(-180)"/><rect class="cls-8" x="191.9" y="198.13" width="16.64" height="115.11" rx="8.32" transform="translate(122.21 -59.56) rotate(24.17)"/><rect class="cls-3" x="173.52" y="297.82" width="7.49" height="18.05" rx="3.74" transform="translate(141.15 -45.68) rotate(24.17)"/><rect class="cls-3" x="161.71" y="305.5" width="18.58" height="30.56" rx="9.29" transform="translate(146.3 -41.89) rotate(24.17)"/><rect class="cls-2" x="175.68" y="313.32" width="7.49" height="18.05" rx="3.74" transform="translate(147.68 -45.2) rotate(24.17)"/><rect class="cls-8" x="277.22" y="193.27" width="16.64" height="115.11" rx="8.32" transform="translate(648.74 362.79) rotate(155.83)"/><rect class="cls-3" x="310.73" y="292.96" width="7.49" height="18.05" rx="3.74" transform="translate(725.02 448.77) rotate(155.83)"/><rect class="cls-3" x="311.44" y="300.65" width="18.58" height="30.56" rx="9.29" transform="translate(742.69 472.87) rotate(155.83)"/><rect class="cls-2" x="308.57" y="308.47" width="7.49" height="18.05" rx="3.74" transform="translate(727.24 479.3) rotate(155.83)"/><rect class="cls-8" x="214.69" y="198.07" width="63.84" height="132.14" rx="30.62"/><rect class="cls-7" x="214.76" y="276.77" width="63.69" height="53.44" rx="26.72"/></svg>