<svg id="Layer_4" data-name="Layer 4" xmlns="http://www.w3.org/2000/svg" width="190.56" height="384.65" viewBox="0 0 190.56 384.65"><defs><style>.cls-1{fill:#231f20;}.cls-2{fill:#f79461;}.cls-3{fill:#fdcc9a;}.cls-4{fill:#0e0e1e;}.cls-5{fill:#f9ac87;}.cls-6{fill:#ed1e29;}.cls-7{fill:#253879;}.cls-8{fill:#feeb3d;}.cls-9{fill:#ed1c24;stroke:#ed1c24;stroke-miterlimit:10;stroke-width:4px;}</style></defs><title>character_2_game</title><circle class="cls-1" cx="92.33" cy="58.82" r="49.56"/><rect class="cls-2" x="82.6" y="149.97" width="17.98" height="37.38" rx="8.99"/><rect class="cls-3" x="60.41" y="33.54" width="63.84" height="132.14" rx="30.62"/><path class="cls-1" d="M262.38,158.75c0,7.4-6.77,13.4-15.12,13.4s-15.12-6-15.12-13.4,10-8.55,15.12-13.4C256.13,136.93,262.38,151.35,262.38,158.75Z" transform="translate(-155.02 -18.94)"/><ellipse class="cls-3" cx="124.25" cy="105.67" rx="8.58" ry="11.29"/><ellipse class="cls-2" cx="124.25" cy="106.21" rx="5.12" ry="6.11"/><ellipse class="cls-3" cx="58.47" cy="105.67" rx="8.58" ry="11.29"/><ellipse class="cls-2" cx="58.48" cy="106.21" rx="5.12" ry="6.11"/><ellipse class="cls-4" cx="117.11" cy="34.25" rx="24.78" ry="24.57"/><ellipse class="cls-4" cx="85.19" cy="25.24" rx="23.1" ry="25.24"/><circle class="cls-4" cx="55.59" cy="34.25" r="12.82"/><circle class="cls-4" cx="129.93" cy="55.9" r="12.82"/><circle class="cls-4" cx="75.5" cy="81.04" r="7.1"/><circle class="cls-4" cx="108.29" cy="81.04" r="7.1"/><rect class="cls-5" x="87.23" y="73.94" width="10.21" height="38.08" rx="5.1"/><rect class="cls-6" x="50.32" y="362.51" width="31.67" height="22.06" rx="10.11"/><rect class="cls-6" x="73.62" y="265.02" width="16.73" height="119.54"/><rect class="cls-6" x="259.05" y="381.4" width="31.67" height="22.06" rx="10.11" transform="translate(396.92 764.4) rotate(179.68)"/><rect class="cls-6" x="250.42" y="284" width="16.73" height="119.54" transform="translate(364.44 667.18) rotate(179.68)"/><rect class="cls-7" x="191.11" y="109.99" width="16.64" height="115.11" rx="8.32" transform="translate(297.58 209.83) rotate(153.56)"/><rect class="cls-3" x="170.72" y="108.31" width="7.49" height="18.05" rx="3.74" transform="translate(227.91 125.78) rotate(153.56)"/><rect class="cls-3" x="158.37" y="88.37" width="18.58" height="30.56" rx="9.29" transform="translate(208.92 102.88) rotate(153.56)"/><rect class="cls-2" x="157.37" y="100.14" width="7.49" height="18.05" rx="3.74" transform="translate(198.96 116.24) rotate(153.56)"/><rect class="cls-7" x="290.6" y="112.86" width="16.64" height="115.11" rx="8.32" transform="translate(-20.93 -150.56) rotate(31.69)"/><rect class="cls-3" x="321.28" y="108.73" width="7.49" height="18.05" rx="3.74" transform="translate(-44.7 -172.12) rotate(31.69)"/><rect class="cls-3" x="323.76" y="89.47" width="18.58" height="30.56" rx="9.29" transform="matrix(0.85, 0.53, -0.53, 0.85, -50.34, -178.28)"/><rect class="cls-2" x="335.32" y="101.81" width="7.49" height="18.05" rx="3.74" transform="translate(-46.24 -180.53) rotate(31.69)"/><rect class="cls-7" x="59.67" y="179.13" width="63.84" height="132.14" rx="30.62"/><rect class="cls-6" x="59.74" y="257.83" width="63.69" height="53.44" rx="26.72"/><polygon class="cls-8" points="76.82 203.81 75.2 199.89 71.05 199 74.28 196.25 73.85 192.02 77.46 194.25 81.34 192.53 80.35 196.65 83.18 199.81 78.95 200.14 76.82 203.81"/><polygon class="cls-8" points="90.95 196.91 89.33 192.99 85.18 192.1 88.41 189.35 87.97 185.13 91.59 187.35 95.47 185.63 94.47 189.76 97.31 192.92 93.08 193.24 90.95 196.91"/><polygon class="cls-8" points="70.76 217.65 69.14 213.73 64.99 212.84 68.22 210.09 67.78 205.87 71.4 208.09 75.28 206.37 74.28 210.5 77.12 213.65 72.89 213.98 70.76 217.65"/><polygon class="cls-8" points="79.39 229.44 77.77 225.51 73.62 224.63 76.85 221.87 76.42 217.65 80.03 219.87 83.91 218.16 82.92 222.28 85.75 225.44 81.52 225.77 79.39 229.44"/><polygon class="cls-8" points="105.14 199.14 103.53 195.21 99.38 194.32 102.61 191.57 102.17 187.35 105.79 189.57 109.67 187.85 108.67 191.98 111.5 195.14 107.27 195.47 105.14 199.14"/><polygon class="cls-8" points="93.6 232.08 91.98 228.16 87.83 227.26 91.07 224.51 90.63 220.29 94.25 222.51 98.13 220.8 97.13 224.92 99.96 228.08 95.73 228.41 93.6 232.08"/><polygon class="cls-8" points="107.07 226.19 105.45 222.26 101.3 221.37 104.53 218.62 104.09 214.4 107.71 216.62 111.59 214.9 110.59 219.03 113.43 222.19 109.2 222.51 107.07 226.19"/><polygon class="cls-8" points="111.21 212.66 109.59 208.74 105.44 207.85 108.67 205.09 108.23 200.87 111.85 203.1 115.73 201.38 114.73 205.5 117.57 208.66 113.34 208.99 111.21 212.66"/><circle class="cls-1" cx="92.33" cy="58.82" r="49.56"/><rect class="cls-2" x="82.6" y="149.97" width="17.98" height="37.38" rx="8.99"/><rect class="cls-3" x="60.41" y="33.54" width="63.84" height="132.14" rx="30.62"/><path class="cls-1" d="M262.38,158.75c0,7.4-6.77,13.4-15.12,13.4s-15.12-6-15.12-13.4,10-8.55,15.12-13.4C256.13,136.93,262.38,151.35,262.38,158.75Z" transform="translate(-155.02 -18.94)"/><ellipse class="cls-3" cx="124.25" cy="105.67" rx="8.58" ry="11.29"/><ellipse class="cls-2" cx="124.25" cy="106.21" rx="5.12" ry="6.11"/><ellipse class="cls-3" cx="58.47" cy="105.67" rx="8.58" ry="11.29"/><ellipse class="cls-2" cx="58.48" cy="106.21" rx="5.12" ry="6.11"/><ellipse class="cls-4" cx="117.11" cy="34.25" rx="24.78" ry="24.57"/><ellipse class="cls-4" cx="85.19" cy="25.24" rx="23.1" ry="25.24"/><circle class="cls-4" cx="55.59" cy="34.25" r="12.82"/><circle class="cls-4" cx="129.93" cy="55.9" r="12.82"/><circle class="cls-4" cx="75.5" cy="81.04" r="7.1"/><circle class="cls-4" cx="108.29" cy="81.04" r="7.1"/><rect class="cls-5" x="87.23" y="73.94" width="10.21" height="38.08" rx="5.1"/><rect class="cls-6" x="50.32" y="362.51" width="31.67" height="22.06" rx="10.11"/><rect class="cls-6" x="73.62" y="265.02" width="16.73" height="119.54"/><rect class="cls-6" x="259.05" y="381.4" width="31.67" height="22.06" rx="10.11" transform="translate(396.92 764.4) rotate(179.68)"/><rect class="cls-6" x="250.42" y="284" width="16.73" height="119.54" transform="translate(364.44 667.18) rotate(179.68)"/><rect class="cls-7" x="191.11" y="109.99" width="16.64" height="115.11" rx="8.32" transform="translate(297.58 209.83) rotate(153.56)"/><rect class="cls-3" x="170.72" y="108.31" width="7.49" height="18.05" rx="3.74" transform="translate(227.91 125.78) rotate(153.56)"/><rect class="cls-3" x="158.37" y="88.37" width="18.58" height="30.56" rx="9.29" transform="translate(208.92 102.88) rotate(153.56)"/><rect class="cls-2" x="157.37" y="100.14" width="7.49" height="18.05" rx="3.74" transform="translate(198.96 116.24) rotate(153.56)"/><rect class="cls-7" x="290.6" y="112.86" width="16.64" height="115.11" rx="8.32" transform="translate(-20.93 -150.56) rotate(31.69)"/><rect class="cls-3" x="321.28" y="108.73" width="7.49" height="18.05" rx="3.74" transform="translate(-44.7 -172.12) rotate(31.69)"/><rect class="cls-3" x="323.76" y="89.47" width="18.58" height="30.56" rx="9.29" transform="matrix(0.85, 0.53, -0.53, 0.85, -50.34, -178.28)"/><rect class="cls-2" x="335.32" y="101.81" width="7.49" height="18.05" rx="3.74" transform="translate(-46.24 -180.53) rotate(31.69)"/><rect class="cls-7" x="59.67" y="179.13" width="63.84" height="132.14" rx="30.62"/><rect class="cls-6" x="59.74" y="257.83" width="63.69" height="53.44" rx="26.72"/><polygon class="cls-8" points="76.82 203.81 75.2 199.89 71.05 199 74.28 196.25 73.85 192.02 77.46 194.25 81.34 192.53 80.35 196.65 83.18 199.81 78.95 200.14 76.82 203.81"/><polygon class="cls-8" points="90.95 196.91 89.33 192.99 85.18 192.1 88.41 189.35 87.97 185.13 91.59 187.35 95.47 185.63 94.47 189.76 97.31 192.92 93.08 193.24 90.95 196.91"/><polygon class="cls-8" points="70.76 217.65 69.14 213.73 64.99 212.84 68.22 210.09 67.78 205.87 71.4 208.09 75.28 206.37 74.28 210.5 77.12 213.65 72.89 213.98 70.76 217.65"/><polygon class="cls-8" points="79.39 229.44 77.77 225.51 73.62 224.63 76.85 221.87 76.42 217.65 80.03 219.87 83.91 218.16 82.92 222.28 85.75 225.44 81.52 225.77 79.39 229.44"/><polygon class="cls-8" points="105.14 199.14 103.53 195.21 99.38 194.32 102.61 191.57 102.17 187.35 105.79 189.57 109.67 187.85 108.67 191.98 111.5 195.14 107.27 195.47 105.14 199.14"/><polygon class="cls-8" points="93.6 232.08 91.98 228.16 87.83 227.26 91.07 224.51 90.63 220.29 94.25 222.51 98.13 220.8 97.13 224.92 99.96 228.08 95.73 228.41 93.6 232.08"/><polygon class="cls-8" points="107.07 226.19 105.45 222.26 101.3 221.37 104.53 218.62 104.09 214.4 107.71 216.62 111.59 214.9 110.59 219.03 113.43 222.19 109.2 222.51 107.07 226.19"/><polygon class="cls-8" points="111.21 212.66 109.59 208.74 105.44 207.85 108.67 205.09 108.23 200.87 111.85 203.1 115.73 201.38 114.73 205.5 117.57 208.66 113.34 208.99 111.21 212.66"/><line class="cls-9" x1="70.41" y1="184.06" x2="108.47" y2="231.01"/><line class="cls-9" x1="110.27" y1="188.28" x2="72.21" y2="235.23"/></svg>