<svg id="Layer_1" data-name="Layer 1" xmlns="http://www.w3.org/2000/svg" width="1920" height="1077" viewBox="0 0 1920 1077"><defs><style>.cls-1{fill:#56d8c5;}.cls-1,.cls-10,.cls-11,.cls-12,.cls-13,.cls-7,.cls-8,.cls-9{stroke:#000;stroke-miterlimit:10;}.cls-2{fill:#662d91;}.cls-3{fill:#c69c6d;}.cls-4{fill:#754c24;}.cls-12,.cls-5{fill:#29abe2;}.cls-6{fill:gray;}.cls-7{fill:#55c0e5;}.cls-7,.cls-8,.cls-9{stroke-width:16px;}.cls-14,.cls-9{fill:#4d4d4d;}.cls-10{fill:#22b573;}.cls-11{fill:#d9e021;}.cls-13{fill:none;stroke-width:18px;}</style></defs><title>room-background</title><rect class="cls-1" x="-0.5" y="-2.5" width="1920" height="1080"/><rect class="cls-2" x="1292" y="686" width="202" height="42" rx="21"/><rect class="cls-3" x="628.5" y="448.5" width="1197" height="25"/><path d="M1825,449v24H629V449H1825m1-1H628v26H1826V448Z"/><rect class="cls-4" x="659.5" y="474.5" width="1141" height="35"/><path d="M1800,475v34H660V475H1800m1-1H659v36H1801V474Z"/><rect class="cls-4" x="659.5" y="510.5" width="35" height="504"/><path d="M694,511v503H660V511h34m1-1H659v505h36V510Z"/><rect class="cls-4" x="1765.5" y="510.5" width="35" height="504"/><path d="M1800,511v503h-34V511h34m1-1h-36v505h36V510Z"/><rect class="cls-4" x="1017.5" y="510.5" width="35" height="504"/><path d="M1052,511v503h-34V511h34m1-1h-36v505h36V510Z"/><rect class="cls-5" x="695.5" y="511.5" width="321" height="126"/><path d="M1016,512V637H696V512h320m1-1H695V638h322V511Z"/><rect class="cls-5" x="695.5" y="637.5" width="321" height="126"/><path d="M1016,638V763H696V638h320m1-1H695V764h322V637Z"/><circle class="cls-6" cx="842" cy="574" r="21.5"/><path d="M842,553a21,21,0,1,1-21,21,21,21,0,0,1,21-21m0-1a22,22,0,1,0,22,22,22,22,0,0,0-22-22Z"/><circle class="cls-6" cx="842" cy="700" r="21.5"/><path d="M842,679a21,21,0,1,1-21,21,21,21,0,0,1,21-21m0-1a22,22,0,1,0,22,22,22,22,0,0,0-22-22Z"/><rect class="cls-6" x="1379.5" y="707.5" width="26.59" height="263"/><path d="M1405.59,708V970H1380V708h25.59m1-1H1379V971h27.59V707Z"/><polygon class="cls-6" points="1220.5 940.85 1379.49 882.22 1379 947.55 1220.5 970.92 1220.5 940.85"/><path d="M1379,882.94l-.48,64.18L1221,970.34V941.2l158-58.26m1-1.44-160,59v31L1379.5,948l.5-66.48Z"/><polygon class="cls-6" points="1409 948.35 1408.51 883.02 1567.5 941.65 1567.5 971.73 1409 948.35"/><path d="M1409,883.74,1567,942v29.15l-157.51-23.23-.48-64.18m-1-1.44.5,66.48L1568,972.3v-31l-160-59Z"/><circle cx="1569.5" cy="971.5" r="24.5"/><path d="M1569.5,947.5a24,24,0,1,1-24,24,24,24,0,0,1,24-24m0-1a25,25,0,1,0,25,25,25,25,0,0,0-25-25Z"/><circle cx="1222.5" cy="972.5" r="24.5"/><path d="M1222.5,948.5a24,24,0,1,1-24,24,24,24,0,0,1,24-24m0-1a25,25,0,1,0,25,25,25,25,0,0,0-25-25Z"/><circle cx="1444" cy="428" r="3.5"/><path d="M1444,425a3,3,0,1,1-3,3,3,3,0,0,1,3-3m0-1a4,4,0,1,0,4,4,4,4,0,0,0-4-4Z"/><circle cx="1447" cy="484" r="3.5"/><path d="M1447,481a3,3,0,1,1-3,3,3,3,0,0,1,3-3m0-1a4,4,0,1,0,4,4,4,4,0,0,0-4-4Z"/><circle cx="1339" cy="484" r="3.5"/><path d="M1339,481a3,3,0,1,1-3,3,3,3,0,0,1,3-3m0-1a4,4,0,1,0,4,4,4,4,0,0,0-4-4Z"/><circle cx="1340" cy="427" r="3.5"/><path d="M1340,424a3,3,0,1,1-3,3,3,3,0,0,1,3-3m0-1a4,4,0,1,0,4,4,4,4,0,0,0-4-4Z"/><polygon class="cls-7" points="609.5 382.5 156.5 382.5 156.5 76.5 383 76.5 609.5 76.5 609.5 382.5"/><path class="cls-7" d="M383,229v0Z"/><polyline class="cls-7" points="383 382 383 229 609.5 229 156.5 229.5"/><rect class="cls-8" x="1348" y="360" width="60" height="44"/><rect class="cls-9" x="1265" y="255" width="226" height="127"/><rect class="cls-8" x="1308" y="415" width="140" height="32"/><rect class="cls-2" x="1257" y="429" width="271" height="175" rx="86.79"/><rect class="cls-6" x="1331.5" y="480.5" width="123" height="72"/><path d="M1454,481v71H1332V481h122m1-1H1331v73h124V480Z"/><circle cx="1343" cy="494" r="3"/><circle cx="1442" cy="493" r="3"/><circle cx="1441" cy="541" r="3"/><circle cx="1343" cy="542" r="3"/><rect class="cls-6" x="1377.5" y="507.5" width="31" height="201"/><path d="M1408,508V708h-30V508h30m1-1h-32V709h32V507Z"/><rect class="cls-10" x="721.5" y="404.5" width="186" height="43"/><rect class="cls-11" x="698.5" y="316.5" width="165" height="21"/><rect class="cls-10" x="721.5" y="338.5" width="186" height="43"/><rect class="cls-12" x="698.5" y="382.5" width="165" height="21"/><circle cx="73" cy="971" r="32"/><circle cx="396" cy="972" r="32"/><path class="cls-13" d="M16,971s-2-45,37-61c0,0,29-16,52,17s23.5,33.5,23.5,33.5h0l202-1s20-49,53-53c0,0,54-3,62,21,0,0,18.5,23.5,13.5,43.5s1-375,1-375H383"/><ellipse class="cls-14" cx="396.5" cy="972" rx="10.5" ry="11"/><ellipse class="cls-14" cx="73.5" cy="972" rx="10.5" ry="11"/></svg>