<svg id="Layer_1" data-name="Layer 1" xmlns="http://www.w3.org/2000/svg" width="1050" height="550" viewBox="0 0 1050 550"><defs><style>.cls-1{fill:#56d8c5;}.cls-2{fill:#662d91;}.cls-3{fill:#c69c6d;}.cls-4{fill:#754c24;}.cls-12,.cls-5{fill:#29abe2;}.cls-6{fill:gray;}.cls-7{fill:#55c0e5;}.cls-10,.cls-11,.cls-12,.cls-13,.cls-7,.cls-8,.cls-9{stroke:#000;stroke-miterlimit:10;}.cls-7,.cls-8,.cls-9{stroke-width:16px;}.cls-14,.cls-9{fill:#4d4d4d;}.cls-10{fill:#22b573;}.cls-11{fill:#d9e021;}.cls-13{fill:none;stroke-width:18px;}</style></defs><title>room_background_04</title><rect class="cls-1" width="1050" height="549.98"/><rect class="cls-2" x="749" y="385.13" width="101" height="21.05" rx="10.52"/><rect class="cls-3" x="417.5" y="266.36" width="598" height="12.03"/><path d="M1015,266.86v11H418v-11h597m1-1H417v13h599v-13Z"/><rect class="cls-4" x="433" y="279.39" width="570" height="17.04"/><path d="M1002.5,279.89v16h-569v-16h569m1-1h-571v18h571v-18Z"/><rect class="cls-4" x="433" y="297.43" width="17" height="252.07"/><path d="M449.5,297.93V549h-16V297.93h16m1-1h-18V550h18V296.93Z"/><rect class="cls-4" x="986" y="297.43" width="17" height="252.07"/><path d="M1002.5,297.93V549h-16V297.93h16m1-1h-18V550h18V296.93Z"/><rect class="cls-4" x="612" y="297.43" width="17" height="252.07"/><path d="M628.5,297.93V549h-16V297.93h16m1-1h-18V550h18V296.93Z"/><rect class="cls-5" x="451" y="297.93" width="160" height="62.64"/><path d="M610.5,298.43v61.65h-159V298.43h159m1-1h-161v63.65h161V297.43Z"/><rect class="cls-5" x="451" y="361.08" width="160" height="62.64"/><path d="M610.5,361.58v61.64h-159V361.58h159m1-1h-161v63.64h161V360.58Z"/><ellipse class="cls-6" cx="524" cy="329" rx="10.5" ry="10.52"/><path d="M524,319a10,10,0,1,1-10,10,10,10,0,0,1,10-10m0-1a11,11,0,1,0,11,11,11,11,0,0,0-11-11Z"/><path class="cls-6" d="M524,402.67a10.53,10.53,0,1,1,10.5-10.52A10.52,10.52,0,0,1,524,402.67Z"/><path d="M524,382.12a10,10,0,1,1-10,10,10,10,0,0,1,10-10m0-1a11,11,0,1,0,11,11,11,11,0,0,0-11-11Z"/><rect class="cls-6" x="793" y="396.15" width="12.8" height="131.3"/><path d="M805.3,396.65V527H793.5V396.65h11.8m1-1H792.5V528h13.8V395.65Z"/><polygon class="cls-6" points="713.5 513.01 792.49 483.82 792.25 515.98 713.5 527.62 713.5 513.01"/><path d="M792,484.54l-.23,31L714,527V513.36l78-28.82m1-1.44-80,29.57V528.2l79.75-11.78L793,483.1Z"/><polygon class="cls-6" points="807.75 516.39 807.51 484.22 886.5 513.42 886.5 528.02 807.75 516.39"/><path d="M808,484.94l78,28.83v13.68L808.24,516l-.23-31m-1-1.44.25,33.32L887,528.6V513.07L807,483.5Z"/><ellipse cx="887.75" cy="528.2" rx="12" ry="12.03"/><path d="M887.75,516.67a11.53,11.53,0,1,1-11.5,11.53,11.53,11.53,0,0,1,11.5-11.53m0-1a12.53,12.53,0,1,0,12.5,12.53,12.52,12.52,0,0,0-12.5-12.53Z"/><ellipse cx="714.25" cy="528.7" rx="12" ry="12.03"/><path d="M714.25,517.17a11.53,11.53,0,1,1-11.5,11.53,11.53,11.53,0,0,1,11.5-11.53m0-1a12.53,12.53,0,1,0,12.5,12.53,12.52,12.52,0,0,0-12.5-12.53Z"/><ellipse cx="825" cy="255.84" rx="1.5" ry="1.5"/><path d="M825,254.84a1,1,0,1,1-1,1,1,1,0,0,1,1-1m0-1a2,2,0,1,0,2,2,2,2,0,0,0-2-2Z"/><path d="M826.5,285.41a1.51,1.51,0,1,1,1.5-1.51A1.51,1.51,0,0,1,826.5,285.41Z"/><path d="M826.5,282.9a1,1,0,1,1-1,1,1,1,0,0,1,1-1m0-1a2,2,0,1,0,2,2,2,2,0,0,0-2-2Z"/><path d="M772.5,285.41a1.51,1.51,0,1,1,1.5-1.51A1.51,1.51,0,0,1,772.5,285.41Z"/><path d="M772.5,282.9a1,1,0,1,1-1,1,1,1,0,0,1,1-1m0-1a2,2,0,1,0,2,2,2,2,0,0,0-2-2Z"/><path d="M773,256.84a1.51,1.51,0,1,1,1.5-1.5A1.5,1.5,0,0,1,773,256.84Z"/><path d="M773,254.34a1,1,0,1,1-1,1,1,1,0,0,1,1-1m0-1a2,2,0,1,0,2,2,2,2,0,0,0-2-2Z"/><polygon class="cls-7" points="407.75 233.04 181.25 233.04 181.25 79.7 294.5 79.7 407.75 79.7 407.75 233.04"/><path class="cls-7" d="M294.5,156.12v0Z"/><polyline class="cls-7" points="294.5 232.79 294.5 156.12 407.75 156.12 181.25 156.37"/><rect class="cls-8" x="777" y="221.76" width="30" height="22.05"/><rect class="cls-9" x="735.5" y="169.15" width="113" height="63.64"/><rect class="cls-8" x="757" y="249.33" width="70" height="16.04"/><rect class="cls-2" x="731.5" y="256.34" width="135.5" height="87.7" rx="43.85"/><rect class="cls-6" x="769" y="282.4" width="61" height="35.58"/><path d="M829.5,282.9v34.58h-60V282.9h60m1-1h-62v36.58h62V281.9Z"/><circle cx="774.5" cy="288.91" r="1.5"/><circle cx="824" cy="288.41" r="1.5"/><circle cx="823.5" cy="312.47" r="1.5"/><circle cx="774.5" cy="312.97" r="1.5"/><rect class="cls-6" x="792" y="295.93" width="15" height="100.23"/><path d="M806.5,296.43v99.23h-14V296.43h14m1-1h-16V396.66h16V295.43Z"/><rect class="cls-10" x="463.75" y="244.06" width="93" height="21.55"/><rect class="cls-11" x="452.25" y="199.97" width="82.5" height="10.52"/><rect class="cls-10" x="463.75" y="210.99" width="93" height="21.55"/><rect class="cls-12" x="452.25" y="233.04" width="82.5" height="10.52"/><ellipse cx="139.5" cy="527.95" rx="16" ry="16.04"/><ellipse cx="301" cy="528.45" rx="16" ry="16.04"/><path class="cls-13" d="M111,528s-1-22.55,18.5-30.57c0,0,14.5-8,26,8.52s11.75,16.79,11.75,16.79h0l101-.5s10-24.56,26.5-26.56c0,0,27-1.51,31,10.52,0,0,9.25,11.78,6.75,21.8S333,340,333,340H294.5"/><ellipse class="cls-14" cx="301.25" cy="528.45" rx="5.25" ry="5.51"/><ellipse class="cls-14" cx="139.75" cy="528.45" rx="5.25" ry="5.51"/></svg>