<svg xmlns="http://www.w3.org/2000/svg" width="3150" height="550" viewBox="0 0 3150 550"><defs><style>.cls-1{fill:#4d4d4d;}.cls-2{fill:#85c6dd;}.cls-3{fill:#fff;}.cls-4{fill:#e6edef;}</style></defs><title>sprite-book</title><g id="Layer_2_copy" data-name="Layer 2 copy"><rect class="cls-1" x="2104.5" y="33.75" width="1049" height="514.75" rx="29.5"/><path d="M3124,34.25a29,29,0,0,1,29,29V519a29,29,0,0,1-29,29H2134a29,29,0,0,1-29-29V63.25a29,29,0,0,1,29-29h990m0-1H2134a30.09,30.09,0,0,0-30,30V519a30.09,30.09,0,0,0,30,30h990a30.09,30.09,0,0,0,30-30V63.25a30.09,30.09,0,0,0-30-30Z"/><rect x="2575.39" y="33.75" width="63.56" height="514.75"/><path d="M2638.44,34.25V548h-62.55V34.25h62.55m1-1h-64.55V549h64.55V33.25Z"/><rect class="cls-2" x="2146.27" y="111.65" width="957.86" height="404.12" rx="29.5"/><path d="M3074.63,112.15a29,29,0,0,1,29,29V486.28a29,29,0,0,1-29,29H2175.77a29,29,0,0,1-29-29V141.15a29,29,0,0,1,29-29h898.86m0-1H2175.77a30.09,30.09,0,0,0-30,30V486.28a30.09,30.09,0,0,0,30,30h898.86a30.09,30.09,0,0,0,30-30V141.15a30.09,30.09,0,0,0-30-30Z"/><path class="cls-3" d="M2601.67,464.44a962.32,962.32,0,0,0-429.52,0l-25.88,6v-443l51.27-9.94a1005.69,1005.69,0,0,1,378.74,0l51.27,9.94v443Z"/><path d="M2386.91,0a997,997,0,0,1,189.28,18l50.86,9.86v442L2601.79,464A962.56,962.56,0,0,0,2172,464l-25.27,5.87v-442L2197.64,18A996.87,996.87,0,0,1,2386.91,0m0-1a998.09,998.09,0,0,0-189.47,18l-51.67,10V471.09l26.49-6.16a961.73,961.73,0,0,1,429.3,0l26.49,6.16V27l-51.67-10A998.09,998.09,0,0,0,2386.91-1Z"/><path class="cls-4" d="M2624.75,28.07l51.07-9.94a998.41,998.41,0,0,1,377.25,0l51.06,9.94v443l-25.77-6a954.85,954.85,0,0,0-427.83,0l-25.78,6Z"/><path d="M2864.44.65a989.21,989.21,0,0,1,188.53,18l50.66,9.86v442l-25.16-5.88a955.49,955.49,0,0,0-428.06,0l-25.16,5.88v-442l50.66-9.86a989.21,989.21,0,0,1,188.53-18m0-1a990.34,990.34,0,0,0-188.72,18l-51.47,10V471.74l26.39-6.16a954.27,954.27,0,0,1,427.61,0l26.38,6.16V27.66l-51.47-10a990.26,990.26,0,0,0-188.72-18Z"/></g><g id="Layer_2_copy_2" data-name="Layer 2 copy 2"><rect class="cls-1" x="1054.5" y="42.75" width="1049" height="514.75" rx="29.5"/><path d="M2074,43.25a29,29,0,0,1,29,29V528a29,29,0,0,1-29,29H1084a29,29,0,0,1-29-29V72.25a29,29,0,0,1,29-29h990m0-1H1084a30.09,30.09,0,0,0-30,30V528a30.09,30.09,0,0,0,30,30h990a30.09,30.09,0,0,0,30-30V72.25a30.09,30.09,0,0,0-30-30Z"/><rect x="1525.39" y="42.75" width="63.56" height="514.75"/><path d="M1588.44,43.25V557h-62.55V43.25h62.55m1-1h-64.55V558h64.55V42.25Z"/><rect class="cls-2" x="1096.27" y="120.65" width="957.86" height="404.12" rx="29.5"/><path d="M2024.63,121.15a29,29,0,0,1,29,29V495.28a29,29,0,0,1-29,29H1125.77a29,29,0,0,1-29-29V150.15a29,29,0,0,1,29-29h898.86m0-1H1125.77a30.09,30.09,0,0,0-30,30V495.28a30.09,30.09,0,0,0,30,30h898.86a30.09,30.09,0,0,0,30-30V150.15a30.09,30.09,0,0,0-30-30Z"/><path class="cls-3" d="M1551.67,473.44a962.32,962.32,0,0,0-429.52,0l-25.88,6v-443l51.27-9.94a1005.69,1005.69,0,0,1,378.74,0l51.27,9.94v443Z"/><path d="M1336.91,9a997,997,0,0,1,189.28,18l50.86,9.86v442L1551.79,473A962.56,962.56,0,0,0,1122,473l-25.27,5.87v-442L1147.64,27A996.87,996.87,0,0,1,1336.91,9m0-1a998.16,998.16,0,0,0-189.47,18l-51.67,10V480.09l26.49-6.16a961.73,961.73,0,0,1,429.3,0l26.49,6.16V36l-51.67-10A998.09,998.09,0,0,0,1336.91,8Z"/><path class="cls-4" d="M2031.49,473.29a962.94,962.94,0,0,0-429,0l-25.84,6V37.79l51.2-9.9a1006.35,1006.35,0,0,1,378.24,0l51.2,9.9v441.5Z"/><path d="M1817,10.46a997.6,997.6,0,0,1,189,17.92l50.79,9.83V478.66l-25.23-5.86a963.52,963.52,0,0,0-429.18,0l-25.23,5.86V38.21L1628,28.38a997.6,997.6,0,0,1,189-17.92m0-1A998.7,998.7,0,0,0,1627.79,27.4l-51.6,10V479.92l26.45-6.14a962.35,962.35,0,0,1,428.74,0l26.45,6.14V37.38l-51.6-10A998.78,998.78,0,0,0,1817,9.46Z"/><path class="cls-3" d="M2031.41,473.06A945.38,945.38,0,0,0,1864,450l.08-1.07h.94c20.36,0,44.35-21.48,55.8-49.95,5.05-12.55,7.19-25,6.2-36.09,11.38,7.07,27.1,12.95,44.4,16.61a179.25,179.25,0,0,0,36.34,4c25.11,0,43.26-6.34,47.36-16.54a11.87,11.87,0,0,0,.89-4.08h1.21v116.2Z"/><path d="M2056.75,363.36V478.43l-25.23-5.85a946.25,946.25,0,0,0-167-23v-.08h.47c10,0,21.17-5.07,31.49-14.27s19.15-22,24.77-36c4.93-12.25,7.1-24.41,6.32-35.33,11.35,6.87,26.78,12.58,43.72,16.16a179.52,179.52,0,0,0,36.44,4c12.13,0,22.93-1.48,31.23-4.28,8.73-2.94,14.47-7.29,16.6-12.57a12.72,12.72,0,0,0,.89-3.77h.24M1926.45,362c1.15,10.76-.73,23.61-6.07,36.87-11.58,28.8-35.32,49.64-55.33,49.64-.47,0-.93,0-1.4,0l-.15,2.06a945.4,945.4,0,0,1,167.8,23.06l26.45,6.14V362.36h-2.2a11.52,11.52,0,0,1-.86,4.39c-4.17,10.38-22.82,16.23-46.9,16.23a177.52,177.52,0,0,1-36.24-3.94c-18.4-3.89-34.11-10.07-45.1-17.09Z"/></g><g id="Layer_2" data-name="Layer 2"><rect class="cls-1" x="4.5" y="33.75" width="1049" height="514.75" rx="29.5"/><path d="M1024,34.25a29,29,0,0,1,29,29V519a29,29,0,0,1-29,29H34A29,29,0,0,1,5,519V63.25a29,29,0,0,1,29-29h990m0-1H34a30.09,30.09,0,0,0-30,30V519a30.09,30.09,0,0,0,30,30h990a30.09,30.09,0,0,0,30-30V63.25a30.09,30.09,0,0,0-30-30Z"/><rect x="475.39" y="33.75" width="63.56" height="514.75"/><path d="M538.44,34.25V548H475.89V34.25h62.55m1-1H474.89V549h64.55V33.25Z"/><rect class="cls-2" x="46.27" y="111.65" width="957.86" height="404.12" rx="29.5"/><path d="M974.63,112.15a29,29,0,0,1,29,29V486.28a29,29,0,0,1-29,29H75.77a29,29,0,0,1-29-29V141.15a29,29,0,0,1,29-29H974.63m0-1H75.77a30.09,30.09,0,0,0-30,30V486.28a30.09,30.09,0,0,0,30,30H974.63a30.09,30.09,0,0,0,30-30V141.15a30.09,30.09,0,0,0-30-30Z"/><path class="cls-3" d="M980.15,464.44a962.32,962.32,0,0,0-429.52,0l-25.88,6v-443L576,17.49a1005.69,1005.69,0,0,1,378.74,0L1006,27.43v443Z"/><path d="M765.39,0A996.9,996.9,0,0,1,954.67,18l50.86,9.86v442L980.27,464a962.56,962.56,0,0,0-429.75,0l-25.27,5.87v-442L576.12,18A996.87,996.87,0,0,1,765.39,0m0-1A998,998,0,0,0,575.93,17L524.25,27V471.09l26.49-6.16a961.73,961.73,0,0,1,429.3,0l26.49,6.16V27L954.86,17A998,998,0,0,0,765.39-1Z"/><path class="cls-4" d="M499.88,465.09A941.72,941.72,0,0,0,286,440.82,941.72,941.72,0,0,0,72,465.09l-25.77,6v-443l51.07-9.94A990.07,990.07,0,0,1,286,.15h0a990.26,990.26,0,0,1,188.63,18l51.06,9.94v443Z"/><path d="M286,.65a989.21,989.21,0,0,1,188.53,18l50.66,9.86v442L500,464.6a942.62,942.62,0,0,0-214-24.28,942.62,942.62,0,0,0-214,24.28l-25.16,5.88v-442l50.66-9.86A989.21,989.21,0,0,1,286,.65m0-1a990.34,990.34,0,0,0-188.72,18l-51.47,10V471.74l26.39-6.16a954.27,954.27,0,0,1,427.61,0l26.38,6.16V27.66l-51.47-10A990.26,990.26,0,0,0,286-.35Z"/></g></svg>