<?xml version="1.0" encoding="utf-8"?>
<!-- Generator: Adobe Illustrator 23.1.1, SVG Export Plug-In . SVG Version: 6.00 Build 0)  -->
<svg version="1.1" id="Layer_1" xmlns="http://www.w3.org/2000/svg" xmlns:xlink="http://www.w3.org/1999/xlink" x="0px" y="0px"
	 viewBox="0 0 200 200" style="enable-background:new 0 0 200 200;" xml:space="preserve">
<style type="text/css">
	.st0{fill:#20C476;}
	.st1{fill:#EAC7B0;}
	.st2{fill:#434041;}
	.st3{fill:#F9F9F9;}
</style>
<path class="st0" d="M113.5,197.7c-2.2,0-4.4-0.6-6.5-1.2c-2.1-0.6-4.2-1.2-6.2-1.2c-2,0-4.2,0.6-6.2,1.2c-2.1,0.6-4.3,1.2-6.5,1.2
	c-0.5,0-1,0-1.4-0.1c-2.7-0.4-5.1-1.9-7.5-3.4c-1.9-1.2-3.6-2.3-5.5-2.8c-1.9-0.6-4.1-0.6-6.3-0.6c-2.7,0-5.6-0.1-8-1.2
	c-2.5-1.1-4.4-3.3-6.2-5.3c-1.5-1.7-2.8-3.2-4.5-4.3c-1.7-1.1-3.7-1.7-5.8-2.3c-2.6-0.8-5.3-1.6-7.4-3.4c-2-1.8-3.3-4.3-4.4-6.8
	c-0.9-2-1.8-3.9-3.1-5.4c-1.3-1.5-3-2.6-4.9-3.9c-2.3-1.5-4.7-3.1-6.1-5.3c-1.5-2.3-1.9-5.1-2.3-7.8c-0.3-2.1-0.7-4.3-1.5-6.1
	c-0.8-1.8-2.2-3.4-3.6-5c-1.8-2.1-3.6-4.3-4.4-6.9c-0.8-2.6-0.4-5.4,0-8.1c0.3-2.1,0.6-4.3,0.3-6.3c-0.3-1.9-1.1-3.8-2-5.8
	c-1.1-2.5-2.3-5.1-2.3-7.9c0-2.8,1.2-5.4,2.3-7.9c0.9-2,1.7-3.9,2-5.8c0.3-2,0-4.2-0.3-6.3c-0.4-2.7-0.7-5.5,0-8.1
	c0.8-2.6,2.6-4.8,4.4-6.9c1.4-1.7,2.8-3.3,3.6-5c0.8-1.8,1.2-4,1.5-6.1c0.4-2.7,0.9-5.5,2.3-7.8c1.5-2.3,3.8-3.8,6.1-5.3
	c1.9-1.2,3.6-2.4,4.9-3.9c1.3-1.5,2.2-3.4,3.1-5.4c1.2-2.5,2.4-5,4.4-6.8c2-1.8,4.7-2.6,7.4-3.4c2.1-0.7,4.1-1.3,5.8-2.3
	c1.6-1.1,3-2.6,4.5-4.3c1.8-2.1,3.7-4.2,6.2-5.3c2.4-1.1,5.3-1.2,8-1.2c2.1,0,4.3-0.1,6.3-0.6c1.9-0.5,3.6-1.6,5.5-2.8
	c2.3-1.5,4.8-3,7.5-3.4c0.5-0.1,1-0.1,1.4-0.1c2.2,0,4.4,0.6,6.5,1.2c2.1,0.6,4.2,1.2,6.2,1.2c2,0,4.2-0.6,6.2-1.2
	c2.1-0.6,4.3-1.2,6.5-1.2c0.5,0,1,0,1.4,0.1c2.7,0.4,5.1,1.9,7.5,3.4c1.9,1.2,3.6,2.3,5.5,2.8c1.9,0.6,4.1,0.6,6.3,0.6
	c2.7,0,5.6,0.1,8,1.2c2.5,1.1,4.4,3.3,6.2,5.3c1.5,1.7,2.8,3.2,4.5,4.3c1.7,1.1,3.7,1.7,5.8,2.3c2.6,0.8,5.3,1.6,7.4,3.4
	c2,1.8,3.3,4.3,4.4,6.8c0.9,2,1.8,3.9,3.1,5.4c1.3,1.5,3,2.6,4.9,3.9c2.3,1.5,4.7,3.1,6.1,5.3c1.5,2.3,1.9,5.1,2.3,7.8
	c0.3,2.1,0.7,4.3,1.5,6.1c0.8,1.8,2.2,3.4,3.6,5c1.8,2.1,3.6,4.3,4.4,6.9c0.8,2.6,0.4,5.4,0,8.1c-0.3,2.1-0.6,4.3-0.3,6.3
	c0.3,1.9,1.1,3.8,2,5.8c1.1,2.5,2.3,5.1,2.3,7.9c0,2.8-1.2,5.4-2.3,7.9c-0.9,2-1.7,3.9-2,5.8c-0.3,2,0,4.2,0.3,6.3
	c0.4,2.7,0.7,5.5,0,8.1c-0.8,2.6-2.6,4.8-4.4,6.9c-1.4,1.7-2.8,3.3-3.6,5c-0.8,1.8-1.2,4-1.5,6.1c-0.4,2.7-0.9,5.5-2.3,7.8
	c-1.5,2.3-3.8,3.8-6.1,5.3c-1.9,1.2-3.6,2.4-4.9,3.9c-1.3,1.5-2.2,3.4-3.1,5.4c-1.2,2.5-2.4,5-4.4,6.8c-2,1.8-4.7,2.6-7.4,3.4
	c-2.1,0.7-4.1,1.3-5.8,2.3c-1.6,1.1-3,2.6-4.5,4.3c-1.8,2.1-3.7,4.2-6.2,5.3c-2.4,1.1-5.3,1.1-8,1.2c-2.1,0-4.3,0.1-6.3,0.6
	c-1.9,0.5-3.6,1.6-5.5,2.8c-2.3,1.5-4.8,3-7.5,3.4C114.5,197.7,114,197.7,113.5,197.7z M100.8,193.7c2.2,0,4.5,0.6,6.7,1.2
	c2.1,0.6,4.1,1.2,6.1,1.2c0.4,0,0.8,0,1.2-0.1c2.4-0.3,4.6-1.7,6.9-3.1c1.9-1.2,3.8-2.4,5.9-3c2.1-0.6,4.4-0.6,6.7-0.7
	c2.7,0,5.2-0.1,7.4-1c2.2-1,3.9-2.9,5.7-4.9c1.5-1.7,3-3.4,4.8-4.6c1.8-1.2,4.1-1.9,6.2-2.5c2.6-0.8,5-1.5,6.8-3.1
	c1.8-1.6,2.9-3.9,4-6.3c0.9-2,1.9-4.1,3.4-5.8c1.4-1.6,3.4-2.9,5.2-4.1c2.3-1.5,4.4-2.9,5.7-4.9c1.3-2,1.7-4.5,2.1-7.2
	c0.3-2.2,0.7-4.5,1.6-6.5c0.9-2,2.4-3.7,3.8-5.4c1.8-2.1,3.4-4,4.1-6.3c0.7-2.3,0.3-4.8,0-7.4c-0.3-2.2-0.6-4.5-0.3-6.7
	c0.3-2.1,1.2-4.2,2.1-6.2c1.1-2.4,2.1-4.8,2.1-7.3c0-2.4-1.1-4.9-2.1-7.3c-0.9-2-1.8-4.1-2.1-6.2c-0.3-2.2,0-4.5,0.3-6.7
	c0.4-2.7,0.7-5.2,0-7.4c-0.7-2.3-2.3-4.3-4.1-6.3c-1.4-1.7-2.9-3.4-3.8-5.4c-0.9-2-1.3-4.3-1.6-6.5c-0.4-2.7-0.8-5.2-2.1-7.2
	c-1.3-2-3.4-3.4-5.7-4.9c-1.9-1.2-3.8-2.5-5.2-4.1c-1.4-1.7-2.4-3.7-3.4-5.8c-1.1-2.4-2.2-4.7-4-6.3c-1.8-1.6-4.2-2.3-6.8-3.1
	c-2.1-0.7-4.3-1.3-6.2-2.5c-1.8-1.2-3.3-2.9-4.8-4.6c-1.8-2-3.5-3.9-5.7-4.9c-2.1-1-4.7-1-7.4-1c-2.2,0-4.6-0.1-6.7-0.7
	c-2.1-0.6-4-1.8-5.9-3c-2.3-1.4-4.5-2.8-6.9-3.1c-0.4-0.1-0.8-0.1-1.2-0.1c-1.9,0-4,0.6-6.1,1.2c-2.2,0.6-4.4,1.2-6.7,1.2
	c-2.2,0-4.5-0.6-6.7-1.2C92,2.5,90,1.9,88.1,1.9c-0.4,0-0.8,0-1.2,0.1c-2.4,0.3-4.6,1.7-6.9,3.1c-1.9,1.2-3.8,2.4-5.9,3
	c-2.1,0.6-4.4,0.6-6.7,0.7c-2.7,0-5.2,0.1-7.4,1c-2.2,1-3.9,2.9-5.7,4.9c-1.5,1.7-3,3.4-4.8,4.6c-1.8,1.2-4.1,1.9-6.2,2.5
	c-2.6,0.8-5,1.5-6.8,3.1c-1.8,1.6-2.9,3.9-4,6.3c-0.9,2-1.9,4.1-3.4,5.8c-1.4,1.6-3.4,2.9-5.2,4.1c-2.3,1.5-4.4,2.9-5.7,4.9
	c-1.3,2-1.7,4.5-2.1,7.2c-0.3,2.2-0.7,4.5-1.6,6.5c-0.9,2-2.4,3.7-3.8,5.4c-1.8,2.1-3.4,4-4.1,6.3c-0.7,2.3-0.3,4.8,0,7.4
	C7,81.1,7.3,83.4,7,85.6c-0.3,2.1-1.2,4.2-2.1,6.2c-1.1,2.4-2.1,4.8-2.1,7.3c0,2.4,1.1,4.9,2.1,7.3c0.9,2,1.8,4.1,2.1,6.2
	c0.3,2.2,0,4.5-0.3,6.7c-0.4,2.7-0.7,5.2,0,7.4c0.7,2.3,2.3,4.3,4.1,6.3c1.4,1.7,2.9,3.4,3.8,5.4c0.9,2,1.3,4.3,1.6,6.5
	c0.4,2.7,0.8,5.2,2.1,7.2c1.3,2,3.4,3.4,5.7,4.9c1.9,1.2,3.8,2.5,5.2,4.1c1.4,1.7,2.4,3.7,3.4,5.8c1.1,2.4,2.2,4.7,4,6.3
	c1.8,1.6,4.2,2.3,6.8,3.1c2.1,0.7,4.3,1.3,6.2,2.5c1.8,1.2,3.3,2.9,4.8,4.6c1.8,2,3.5,3.9,5.7,4.9c2.1,1,4.7,1,7.4,1
	c2.2,0,4.6,0.1,6.7,0.7c2.1,0.6,4,1.8,5.9,3c2.3,1.4,4.5,2.8,6.9,3.1c0.4,0.1,0.8,0.1,1.2,0.1c1.9,0,3.9-0.6,6.1-1.2
	C96.3,194.4,98.6,193.7,100.8,193.7z"/>
<g>
	<path class="st0" d="M194.7,99c0,4.4-6.2,8.3-6.8,12.5c-0.6,4.3,4.2,9.8,3,13.9c-1.2,4.2-8.3,6.2-10.1,10.1
		c-1.8,4,1.3,10.6-1.1,14.2c-2.3,3.6-9.7,3.6-12.5,6.8c-2.8,3.3-1.7,10.5-5,13.3c-3.3,2.8-10.3,0.7-13.9,3.1
		c-3.6,2.3-4.6,9.6-8.6,11.4c-3.9,1.8-10-2.2-14.2-1c-4.1,1.2-7.1,7.9-11.4,8.5c-4.2,0.6-9-5-13.4-5c-4.4,0-9.1,5.6-13.4,5
		c-4.3-0.6-7.3-7.3-11.4-8.5c-4.2-1.2-10.3,2.8-14.2,1c-4-1.8-4.9-9.1-8.6-11.4c-3.6-2.3-10.6-0.2-13.9-3.1
		c-3.3-2.8-2.2-10.1-5-13.3c-2.8-3.3-10.1-3.2-12.5-6.8c-2.3-3.6,0.7-10.3-1.1-14.2c-1.8-3.9-8.8-5.9-10.1-10.1
		c-1.2-4.1,3.6-9.6,3-13.9c-0.6-4.2-6.8-8.1-6.8-12.5c0-4.4,6.2-8.3,6.8-12.5c0.6-4.3-4.2-9.8-3-13.9c1.2-4.2,8.3-6.2,10.1-10.1
		c1.8-4-1.3-10.6,1.1-14.2c2.3-3.6,9.7-3.6,12.5-6.8c2.8-3.3,1.7-10.5,5-13.3c3.3-2.8,10.3-0.7,13.9-3.1c3.6-2.3,4.6-9.6,8.6-11.4
		c3.9-1.8,10,2.2,14.2,1c4.1-1.2,7.1-7.9,11.4-8.5c4.2-0.6,9,5,13.4,5c4.4,0,9.1-5.6,13.4-5c4.3,0.6,7.3,7.3,11.4,8.5
		c4.2,1.2,10.3-2.8,14.2-1c4,1.8,4.9,9.1,8.6,11.4c3.6,2.3,10.6,0.2,13.9,3.1c3.3,2.8,2.2,10.1,5,13.3c2.8,3.3,10.1,3.2,12.5,6.8
		c2.3,3.6-0.7,10.3,1.1,14.2c1.8,3.9,8.8,5.9,10.1,10.1c1.2,4.1-3.6,9.6-3,13.9C188.5,90.7,194.7,94.6,194.7,99z"/>
</g>
<ellipse class="st1" cx="100.8" cy="99" rx="64.2" ry="64.2"/>
<g>
	<path class="st2" d="M145.8,78h-1.5v-4c0-1.1-0.9-2-1.9-2H101H59.7c-1.1,0-1.9,0.9-1.9,2v4h-1.5c-1.2,0-2.2,1-2.2,2.3v53.6
		c0,1.3,1,2.3,2.2,2.3h89.5c1.2,0,2.2-1,2.2-2.3V80.3C148,79.1,147,78,145.8,78z M61.7,76h37.5V130H61.7L61.7,76L61.7,76z
		 M140.4,130H103V76h37.5V130z"/>
</g>
<rect x="60" y="76" class="st3" width="39" height="54"/>
<rect x="103" y="76" class="st3" width="38" height="54"/>
</svg>
