<svg id="Layer_1" data-name="Layer 1" xmlns="http://www.w3.org/2000/svg" width="173.22" height="384.56" viewBox="0 0 173.22 384.56"><defs><style>.cls-1{fill:#231f20;}.cls-2{fill:#f79461;}.cls-3{fill:#fdcc9a;}.cls-4{fill:#0e0e1e;}.cls-5{fill:#f9ac87;}.cls-6{fill:#6c73b6;}.cls-7{fill:#253879;}.cls-8{fill:#feeb3d;}</style></defs><title>character_game</title><circle class="cls-1" cx="88.09" cy="58.82" r="49.56"/><rect class="cls-2" x="78.36" y="149.97" width="17.98" height="37.38" rx="8.99"/><rect class="cls-3" x="54.2" y="28.31" width="63.84" height="132.14" rx="30.62"/><path class="cls-1" d="M283.11,164.05c0,7.4-6.77,13.4-15.12,13.4s-15.13-6-15.13-13.4,10-8.54,15.13-13.4C276.86,142.23,283.11,156.65,283.11,164.05Z" transform="translate(-179.99 -24.24)"/><ellipse class="cls-3" cx="120.01" cy="105.67" rx="8.58" ry="11.29"/><ellipse class="cls-2" cx="120.01" cy="106.21" rx="5.12" ry="6.11"/><ellipse class="cls-3" cx="54.24" cy="105.67" rx="8.58" ry="11.29"/><ellipse class="cls-2" cx="54.24" cy="106.21" rx="5.12" ry="6.11"/><ellipse class="cls-4" cx="112.87" cy="34.25" rx="24.78" ry="24.57"/><ellipse class="cls-4" cx="80.96" cy="25.24" rx="23.1" ry="25.24"/><circle class="cls-4" cx="51.35" cy="34.25" r="12.82"/><circle class="cls-4" cx="125.69" cy="55.9" r="12.82"/><circle class="cls-4" cx="71.26" cy="81.04" r="7.1"/><circle class="cls-4" cx="104.05" cy="81.04" r="7.1"/><rect class="cls-5" x="82.99" y="73.94" width="10.21" height="38.08" rx="5.1"/><rect class="cls-6" x="46.08" y="362.51" width="31.67" height="22.06" rx="10.11"/><rect class="cls-6" x="69.38" y="265.02" width="16.73" height="119.54"/><rect class="cls-6" x="279.49" y="386.75" width="31.67" height="22.06" rx="10.11" transform="translate(410.66 771.31) rotate(-180)"/><rect class="cls-6" x="271.12" y="289.26" width="16.73" height="119.54" transform="translate(378.98 673.82) rotate(-180)"/><rect class="cls-7" x="212.62" y="203.43" width="16.64" height="115.11" rx="8.32" transform="translate(-53.79 -91.81) rotate(24.17)"/><rect class="cls-3" x="194.24" y="303.12" width="7.49" height="18.05" rx="3.74" transform="translate(-34.85 -77.94) rotate(24.17)"/><rect class="cls-3" x="182.44" y="310.8" width="18.58" height="30.56" rx="9.29" transform="translate(-29.7 -74.15) rotate(24.17)"/><rect class="cls-2" x="196.4" y="318.62" width="7.49" height="18.05" rx="3.74" transform="translate(-28.32 -77.46) rotate(24.17)"/><rect class="cls-7" x="297.95" y="198.58" width="16.64" height="115.11" rx="8.32" transform="translate(510.57 340.2) rotate(155.83)"/><rect class="cls-3" x="331.46" y="298.26" width="7.49" height="18.05" rx="3.74" transform="translate(586.85 426.19) rotate(155.83)"/><rect class="cls-3" x="332.17" y="305.95" width="18.58" height="30.56" rx="9.29" transform="translate(604.52 450.29) rotate(155.83)"/><rect class="cls-2" x="329.3" y="313.77" width="7.49" height="18.05" rx="3.74" transform="translate(589.06 456.72) rotate(155.83)"/><rect class="cls-7" x="55.43" y="179.13" width="63.84" height="132.14" rx="30.62"/><rect class="cls-6" x="55.5" y="257.83" width="63.69" height="53.44" rx="26.72"/><polygon class="cls-8" points="72.58 203.81 70.96 199.89 66.81 199 70.05 196.25 69.61 192.02 73.22 194.25 77.11 192.53 76.11 196.65 78.94 199.81 74.71 200.14 72.58 203.81"/><polygon class="cls-8" points="86.71 196.91 85.09 192.99 80.94 192.1 84.17 189.35 83.74 185.13 87.35 187.35 91.23 185.63 90.24 189.76 93.07 192.92 88.84 193.24 86.71 196.91"/><polygon class="cls-8" points="66.52 217.65 64.9 213.73 60.75 212.84 63.98 210.09 63.55 205.87 67.16 208.09 71.04 206.37 70.05 210.5 72.88 213.65 68.65 213.98 66.52 217.65"/><polygon class="cls-8" points="75.15 229.44 73.53 225.51 69.39 224.63 72.61 221.87 72.18 217.65 75.8 219.87 79.68 218.16 78.68 222.28 81.51 225.44 77.28 225.77 75.15 229.44"/><polygon class="cls-8" points="100.91 199.14 99.29 195.21 95.14 194.32 98.37 191.57 97.93 187.35 101.55 189.57 105.43 187.85 104.43 191.98 107.27 195.14 103.03 195.47 100.91 199.14"/><polygon class="cls-8" points="89.36 232.08 87.75 228.16 83.6 227.26 86.83 224.51 86.39 220.29 90.01 222.51 93.89 220.8 92.89 224.92 95.72 228.08 91.49 228.41 89.36 232.08"/><polygon class="cls-8" points="102.83 226.19 101.21 222.26 97.06 221.37 100.29 218.62 99.86 214.4 103.47 216.62 107.35 214.9 106.36 219.03 109.19 222.19 104.96 222.51 102.83 226.19"/><polygon class="cls-8" points="106.97 212.66 105.35 208.74 101.2 207.85 104.43 205.09 104 200.87 107.61 203.1 111.49 201.38 110.5 205.5 113.33 208.66 109.1 208.99 106.97 212.66"/></svg>
