<svg id="Layer_1" data-name="Layer 1" xmlns="http://www.w3.org/2000/svg" width="1050" height="550" viewBox="0 0 1050 550"><defs><style>.cls-1{fill:#b3b3b3;}.cls-2{fill:#fff;}.cls-3{fill:gray;}</style></defs><title>laptop-3</title><rect class="cls-1" x="111.49" y="447.33" width="845.01" height="414.17" rx="29.5"/><path d="M927,447.83a29,29,0,0,1,29,29V832a29,29,0,0,1-29,29H141a29,29,0,0,1-29-29V476.83a29,29,0,0,1,29-29H927m0-1H141a30.09,30.09,0,0,0-30,30V832a30.09,30.09,0,0,0,30,30H927a30.09,30.09,0,0,0,30-30V476.83a30.09,30.09,0,0,0-30-30Z"/><rect class="cls-1" x="159.27" y="492.97" width="755.22" height="173.16" rx="29.5"/><path d="M885,493.47a29,29,0,0,1,29,29V636.63a29,29,0,0,1-29,29H188.77a29,29,0,0,1-29-29V522.47a29,29,0,0,1,29-29H885m0-1H188.77a30.09,30.09,0,0,0-30,30V636.63a30.09,30.09,0,0,0,30,30H885a30.09,30.09,0,0,0,30-30V522.47a30.09,30.09,0,0,0-30-30Z"/><rect x="209.31" y="508.88" width="36.91" height="14.83" rx="4"/><path d="M242.23,509.38a3.5,3.5,0,0,1,3.5,3.5v6.83a3.5,3.5,0,0,1-3.5,3.5H213.32a3.5,3.5,0,0,1-3.5-3.5v-6.83a3.5,3.5,0,0,1,3.5-3.5h28.91m0-1H213.32a4.51,4.51,0,0,0-4.5,4.5v6.83a4.51,4.51,0,0,0,4.5,4.5h28.91a4.52,4.52,0,0,0,4.5-4.5v-6.83a4.51,4.51,0,0,0-4.5-4.5Z"/><rect x="546.52" y="508.88" width="36.91" height="14.83" rx="4"/><path d="M579.43,509.38a3.5,3.5,0,0,1,3.5,3.5v6.83a3.5,3.5,0,0,1-3.5,3.5H550.52a3.5,3.5,0,0,1-3.5-3.5v-6.83a3.5,3.5,0,0,1,3.5-3.5h28.91m0-1H550.52a4.51,4.51,0,0,0-4.5,4.5v6.83a4.52,4.52,0,0,0,4.5,4.5h28.91a4.51,4.51,0,0,0,4.5-4.5v-6.83a4.51,4.51,0,0,0-4.5-4.5Z"/><rect x="504.62" y="508.88" width="36.91" height="14.83" rx="4"/><path d="M537.53,509.38a3.5,3.5,0,0,1,3.5,3.5v6.83a3.5,3.5,0,0,1-3.5,3.5H508.62a3.5,3.5,0,0,1-3.5-3.5v-6.83a3.5,3.5,0,0,1,3.5-3.5h28.91m0-1H508.62a4.51,4.51,0,0,0-4.5,4.5v6.83a4.52,4.52,0,0,0,4.5,4.5h28.91a4.51,4.51,0,0,0,4.5-4.5v-6.83a4.51,4.51,0,0,0-4.5-4.5Z"/><rect x="462.72" y="508.88" width="36.91" height="14.83" rx="4"/><path d="M495.63,509.38a3.5,3.5,0,0,1,3.5,3.5v6.83a3.5,3.5,0,0,1-3.5,3.5H466.72a3.5,3.5,0,0,1-3.5-3.5v-6.83a3.5,3.5,0,0,1,3.5-3.5h28.91m0-1H466.72a4.51,4.51,0,0,0-4.5,4.5v6.83a4.51,4.51,0,0,0,4.5,4.5h28.91a4.52,4.52,0,0,0,4.5-4.5v-6.83a4.51,4.51,0,0,0-4.5-4.5Z"/><rect x="422.81" y="508.88" width="36.91" height="14.83" rx="4"/><path d="M455.72,509.38a3.5,3.5,0,0,1,3.5,3.5v6.83a3.5,3.5,0,0,1-3.5,3.5H426.81a3.5,3.5,0,0,1-3.5-3.5v-6.83a3.5,3.5,0,0,1,3.5-3.5h28.91m0-1H426.81a4.51,4.51,0,0,0-4.5,4.5v6.83a4.52,4.52,0,0,0,4.5,4.5h28.91a4.51,4.51,0,0,0,4.5-4.5v-6.83a4.51,4.51,0,0,0-4.5-4.5Z"/><rect x="380.91" y="508.88" width="36.91" height="14.83" rx="4"/><path d="M413.82,509.38a3.5,3.5,0,0,1,3.5,3.5v6.83a3.5,3.5,0,0,1-3.5,3.5H384.91a3.5,3.5,0,0,1-3.5-3.5v-6.83a3.5,3.5,0,0,1,3.5-3.5h28.91m0-1H384.91a4.51,4.51,0,0,0-4.5,4.5v6.83a4.52,4.52,0,0,0,4.5,4.5h28.91a4.51,4.51,0,0,0,4.5-4.5v-6.83a4.51,4.51,0,0,0-4.5-4.5Z"/><rect x="339.01" y="508.88" width="36.91" height="14.83" rx="4"/><path d="M371.92,509.38a3.5,3.5,0,0,1,3.5,3.5v6.83a3.5,3.5,0,0,1-3.5,3.5H343a3.5,3.5,0,0,1-3.5-3.5v-6.83a3.5,3.5,0,0,1,3.5-3.5h28.91m0-1H343a4.51,4.51,0,0,0-4.5,4.5v6.83a4.51,4.51,0,0,0,4.5,4.5h28.91a4.51,4.51,0,0,0,4.5-4.5v-6.83a4.51,4.51,0,0,0-4.5-4.5Z"/><rect x="297.11" y="508.88" width="36.91" height="14.83" rx="4"/><path d="M330,509.38a3.5,3.5,0,0,1,3.5,3.5v6.83a3.5,3.5,0,0,1-3.5,3.5H301.11a3.5,3.5,0,0,1-3.5-3.5v-6.83a3.5,3.5,0,0,1,3.5-3.5H330m0-1H301.11a4.51,4.51,0,0,0-4.5,4.5v6.83a4.51,4.51,0,0,0,4.5,4.5H330a4.52,4.52,0,0,0,4.5-4.5v-6.83a4.51,4.51,0,0,0-4.5-4.5Z"/><rect x="253.21" y="508.88" width="36.91" height="14.83" rx="4"/><path d="M286.12,509.38a3.5,3.5,0,0,1,3.5,3.5v6.83a3.5,3.5,0,0,1-3.5,3.5H257.21a3.5,3.5,0,0,1-3.5-3.5v-6.83a3.5,3.5,0,0,1,3.5-3.5h28.91m0-1H257.21a4.51,4.51,0,0,0-4.5,4.5v6.83a4.52,4.52,0,0,0,4.5,4.5h28.91a4.51,4.51,0,0,0,4.5-4.5v-6.83a4.51,4.51,0,0,0-4.5-4.5Z"/><rect x="716.12" y="508.88" width="36.91" height="14.83" rx="4"/><path d="M749,509.38a3.5,3.5,0,0,1,3.5,3.5v6.83a3.5,3.5,0,0,1-3.5,3.5H720.12a3.5,3.5,0,0,1-3.5-3.5v-6.83a3.5,3.5,0,0,1,3.5-3.5H749m0-1H720.12a4.51,4.51,0,0,0-4.5,4.5v6.83a4.52,4.52,0,0,0,4.5,4.5H749a4.51,4.51,0,0,0,4.5-4.5v-6.83a4.51,4.51,0,0,0-4.5-4.5Z"/><rect x="674.22" y="508.88" width="36.91" height="14.83" rx="4"/><path d="M707.13,509.38a3.5,3.5,0,0,1,3.5,3.5v6.83a3.5,3.5,0,0,1-3.5,3.5H678.22a3.5,3.5,0,0,1-3.5-3.5v-6.83a3.5,3.5,0,0,1,3.5-3.5h28.91m0-1H678.22a4.51,4.51,0,0,0-4.5,4.5v6.83a4.52,4.52,0,0,0,4.5,4.5h28.91a4.51,4.51,0,0,0,4.5-4.5v-6.83a4.51,4.51,0,0,0-4.5-4.5Z"/><rect x="630.32" y="508.88" width="36.91" height="14.83" rx="4"/><path d="M663.24,509.38a3.5,3.5,0,0,1,3.5,3.5v6.83a3.5,3.5,0,0,1-3.5,3.5H634.32a3.5,3.5,0,0,1-3.5-3.5v-6.83a3.5,3.5,0,0,1,3.5-3.5h28.92m0-1H634.32a4.51,4.51,0,0,0-4.5,4.5v6.83a4.52,4.52,0,0,0,4.5,4.5h28.92a4.52,4.52,0,0,0,4.5-4.5v-6.83a4.51,4.51,0,0,0-4.5-4.5Z"/><rect x="588.42" y="508.88" width="36.91" height="14.83" rx="4"/><path d="M621.33,509.38a3.5,3.5,0,0,1,3.5,3.5v6.83a3.5,3.5,0,0,1-3.5,3.5H592.42a3.5,3.5,0,0,1-3.5-3.5v-6.83a3.5,3.5,0,0,1,3.5-3.5h28.91m0-1H592.42a4.51,4.51,0,0,0-4.5,4.5v6.83a4.52,4.52,0,0,0,4.5,4.5h28.91a4.51,4.51,0,0,0,4.5-4.5v-6.83a4.51,4.51,0,0,0-4.5-4.5Z"/><rect x="805.91" y="508.88" width="36.91" height="14.83" rx="4"/><path d="M838.82,509.38a3.5,3.5,0,0,1,3.5,3.5v6.83a3.5,3.5,0,0,1-3.5,3.5H809.91a3.5,3.5,0,0,1-3.5-3.5v-6.83a3.5,3.5,0,0,1,3.5-3.5h28.91m0-1H809.91a4.51,4.51,0,0,0-4.5,4.5v6.83a4.52,4.52,0,0,0,4.5,4.5h28.91a4.51,4.51,0,0,0,4.5-4.5v-6.83a4.51,4.51,0,0,0-4.5-4.5Z"/><rect x="760.02" y="508.88" width="36.91" height="14.83" rx="4"/><path d="M792.93,509.38a3.5,3.5,0,0,1,3.5,3.5v6.83a3.5,3.5,0,0,1-3.5,3.5H764a3.5,3.5,0,0,1-3.5-3.5v-6.83a3.5,3.5,0,0,1,3.5-3.5h28.91m0-1H764a4.51,4.51,0,0,0-4.5,4.5v6.83a4.51,4.51,0,0,0,4.5,4.5h28.91a4.51,4.51,0,0,0,4.5-4.5v-6.83a4.51,4.51,0,0,0-4.5-4.5Z"/><rect x="213.31" y="533.5" width="26.93" height="21.87"/><path d="M239.74,534v20.87H213.81V534h25.93m1-1H212.81v22.87h27.93V533Z"/><rect x="819.88" y="533.5" width="26.93" height="21.87"/><path d="M846.31,534v20.87H820.38V534h25.93m1-1H819.38v22.87h27.93V533Z"/><rect x="787.95" y="533.5" width="26.93" height="21.87"/><path d="M814.39,534v20.87H788.45V534h25.94m1-1H787.45v22.87h27.94V533Z"/><rect x="756.03" y="533.5" width="26.93" height="21.87"/><path d="M782.46,534v20.87H756.53V534h25.93m1-1H755.53v22.87h27.93V533Z"/><rect x="724.1" y="533.5" width="26.93" height="21.87"/><path d="M750.54,534v20.87H724.6V534h25.94m1-1H723.6v22.87h27.94V533Z"/><rect x="692.18" y="533.5" width="26.93" height="21.87"/><path d="M718.61,534v20.87H692.68V534h25.93m1-1H691.68v22.87h27.93V533Z"/><rect x="660.25" y="533.5" width="26.93" height="21.87"/><path d="M686.69,534v20.87H660.75V534h25.94m1-1H659.75v22.87h27.94V533Z"/><rect x="628.33" y="533.5" width="26.93" height="21.87"/><path d="M654.76,534v20.87H628.83V534h25.93m1-1H627.83v22.87h27.93V533Z"/><rect x="596.4" y="533.5" width="26.93" height="21.87"/><path d="M622.84,534v20.87H596.9V534h25.94m1-1H595.9v22.87h27.94V533Z"/><rect x="564.48" y="533.5" width="26.93" height="21.87"/><path d="M590.91,534v20.87H565V534h25.93m1-1H564v22.87h27.93V533Z"/><rect x="532.55" y="533.5" width="26.93" height="21.87"/><path d="M559,534v20.87H533.05V534H559m1-1H532.05v22.87H560V533Z"/><rect x="500.63" y="533.5" width="26.93" height="21.87"/><path d="M527.06,534v20.87H501.13V534h25.93m1-1H500.13v22.87h27.93V533Z"/><rect x="468.7" y="533.5" width="26.93" height="21.87"/><path d="M495.14,534v20.87H469.2V534h25.94m1-1H468.2v22.87h27.94V533Z"/><rect x="436.78" y="533.5" width="26.93" height="21.87"/><path d="M463.21,534v20.87H437.28V534h25.93m1-1H436.28v22.87h27.93V533Z"/><rect x="404.85" y="533.5" width="26.93" height="21.87"/><path d="M431.29,534v20.87H405.35V534h25.94m1-1H404.35v22.87h27.94V533Z"/><rect x="372.93" y="533.5" width="26.93" height="21.87"/><path d="M399.36,534v20.87H373.43V534h25.93m1-1H372.43v22.87h27.93V533Z"/><rect x="341.01" y="533.5" width="26.93" height="21.87"/><path d="M367.44,534v20.87H341.51V534h25.93m1-1H340.51v22.87h27.93V533Z"/><rect x="309.08" y="533.5" width="26.93" height="21.87"/><path d="M335.51,534v20.87H309.58V534h25.93m1-1H308.58v22.87h27.93V533Z"/><rect x="277.16" y="533.5" width="26.93" height="21.87"/><path d="M303.59,534v20.87H277.66V534h25.93m1-1H276.66v22.87h27.93V533Z"/><rect x="245.23" y="533.5" width="26.93" height="21.87"/><path d="M271.66,534v20.87H245.73V534h25.93m1-1H244.73v22.87h27.93V533Z"/><rect x="107.5" y="0.5" width="839.02" height="447.59" rx="29.5"/><path d="M917,1a29,29,0,0,1,29,29V418.59a29,29,0,0,1-29,29H137a29,29,0,0,1-29-29V30A29,29,0,0,1,137,1H917m0-1H137a30.09,30.09,0,0,0-30,30V418.59a30.09,30.09,0,0,0,30,30H917a30.09,30.09,0,0,0,30-30V30A30.09,30.09,0,0,0,917,0Z"/><rect class="cls-2" x="137.43" y="25.13" width="781.16" height="396.58" rx="29.5"/><path d="M889.09,25.63a29,29,0,0,1,29,29V392.2a29,29,0,0,1-29,29H166.93a29,29,0,0,1-29-29V54.63a29,29,0,0,1,29-29H889.09m0-1H166.93a30.09,30.09,0,0,0-30,30V392.2a30.09,30.09,0,0,0,30,30H889.09a30.09,30.09,0,0,0,30-30V54.63a30.09,30.09,0,0,0-30-30Z"/><rect class="cls-3" x="504.07" y="7.04" width="37.91" height="10.56" rx="3"/><ellipse cx="524.02" cy="12.31" rx="3.99" ry="3.52"/></svg>
